Group:- HKRG
Uploader:-Abhinav4u

Format                                   : Matroska
Format version                           : Version 2
File size                                : 2.31 GiB
Duration                                 : 2h 50mn
Overall bit rate mode                    : Variable
Overall bit rate                         : 1 940 Kbps
Movie name                               : Alexander 2004 720p Dual Audio (Hindi-English)~Abhinav4u~{HKRG}

Video Info:-
Format/Info                              : Advanced Video Codec
Format profile                           : High@L4.0
Width                                    : 1 280 pixels
Height                                   : 544 pixels
Frame rate                               : 23.976 fps
Stream size                              : 1.80 GiB (78%)
Title                                    : Ripper::~Abhinav4u~

Audio #1:-
Format                                   : AC-3
Format/Info                              : Audio Coding 3
Mode extension                           : CM (complete main)
Channel(s)                               : 6 channels
Channel positions                        : Front: L C R, Side: L R, LFE
Stream size                              : 234 MiB (10%)
Title                                    : 5.1~Abhinav4u~
Language                                 : English

Audio #2:-
Format/Info                              : Audio Coding 3
Bit rate                                 : 192 Kbps
Channel(s)                               : 2 channels
Sampling rate                            : 48.0 KHz
Stream size                              : 234 MiB (10%)
Title                                    : 2.0 DD @192Kbps~Abhinav4u~
Language                                 : Hindi
Default                                  : Yes

Sample Included in The Rip..
Enjoy the Movie..